<?xml version="1.0" encoding="utf-8"?>
<!-- Generator: Adobe Illustrator 17.0.0, SVG Export Plug-In . SVG Version: 6.00 Build 0)  -->
<!DOCTYPE svg PUBLIC "-//W3C//DTD SVG 1.1//EN" "http://www.w3.org/Graphics/SVG/1.1/DTD/svg11.dtd">
<svg version="1.1" id="Capa_1" xmlns="http://www.w3.org/2000/svg" xmlns:xlink="http://www.w3.org/1999/xlink" x="0px" y="0px"
	 width="1400px" height="282.478px" viewBox="0 0 1400 282.478" enable-background="new 0 0 1400 282.478" xml:space="preserve">
<g>
	<defs>
		<path id="SVGID_1_" d="M98.011,117.932l-9.96,47.81h52.591l9.96-47.81H98.011z M224.309,107.971c0,2.39-0.199,4.781-0.598,7.171
			c-0.398,2.391-0.863,4.914-1.394,7.57l-15.14,70.52H82.87l-7.967,38.248h115.541l-10.758,49.802H40.241
			c-7.969,0-14.543-0.93-19.722-2.789c-5.179-1.859-9.297-4.382-12.351-7.569c-3.055-3.187-5.18-6.84-6.375-10.956
			C0.598,255.85,0,251.534,0,247.018c0-4.515,0.664-9.695,1.992-15.538l22.312-105.182c3.718-16.733,10.093-29.417,19.123-38.049
			c9.031-8.632,21.914-13.081,38.647-13.346c7.968,0,15.405-0.133,22.311-0.399c6.109,0,12.019-0.066,17.73-0.199
			c5.71-0.133,9.894-0.2,12.55-0.2c2.656,0,6.84,0.067,12.55,0.2c5.71,0.133,11.621,0.199,17.729,0.199
			c6.906,0.266,14.476,0.399,22.71,0.399c12.75,0.265,22.045,3.32,27.889,9.163C221.388,89.91,224.309,97.878,224.309,107.971z"/>
	</defs>
	<clipPath id="SVGID_2_">
		<use xlink:href="#SVGID_1_"  overflow="visible"/>
	</clipPath>
	<linearGradient id="SVGID_3_" gradientUnits="userSpaceOnUse" x1="896.7847" y1="176.668" x2="-756.1517" y2="178.8294">
		<stop  offset="0" style="stop-color:#A6A19F"/>
		<stop  offset="1" style="stop-color:#FDFDFD"/>
	</linearGradient>
	<rect y="74.106" clip-path="url(#SVGID_2_)" fill="url(#SVGID_3_)" width="224.309" height="207.177"/>
</g>
<g>
	<defs>
		<path id="SVGID_4_" d="M481.2,47.81h-99.604l-9.96,49.005l64.942,25.1c10.359,3.985,17.796,8.301,22.312,12.949
			c4.516,4.648,6.773,11.222,6.773,19.721c0,2.922-0.265,5.976-0.796,9.164c-0.532,3.187-1.196,6.773-1.993,10.757l-9.163,43.826
			c-2.391,11.156-5.246,20.652-8.566,28.487c-3.32,7.835-7.636,14.343-12.948,19.522c-5.313,5.18-11.886,8.964-19.722,11.355
			c-7.836,2.39-17.331,3.586-28.487,3.586h-135.86l9.961-47.412h108.37l11.554-55.379l-67.731-27.093
			c-8.5-3.453-15.141-7.503-19.921-12.152c-4.781-4.649-7.172-11.487-7.172-20.519c0-2.125,0.133-4.316,0.398-6.573
			c0.266-2.258,0.664-4.715,1.195-7.371l10.359-48.208c1.86-9.031,4.383-17.065,7.57-24.105c3.187-7.038,7.371-12.948,12.55-17.73
			c5.179-4.781,11.554-8.433,19.124-10.956C341.954,1.261,351.317,0,362.472,0H491.56L481.2,47.81z"/>
	</defs>
	<clipPath id="SVGID_5_">
		<use xlink:href="#SVGID_4_"  overflow="visible"/>
	</clipPath>
	<linearGradient id="SVGID_6_" gradientUnits="userSpaceOnUse" x1="896.7367" y1="139.9523" x2="-756.1998" y2="142.1137">
		<stop  offset="0" style="stop-color:#A6A19F"/>
		<stop  offset="1" style="stop-color:#FDFDFD"/>
	</linearGradient>
	<rect x="248.127" y="0" clip-path="url(#SVGID_5_)" fill="url(#SVGID_6_)" width="243.433" height="281.282"/>
</g>
<g>
	<defs>
		<path id="SVGID_7_" d="M675.54,47.013H585.1l-39.842,187.255h90.441l-9.96,47.014H503.425c-8.499,0-15.539-0.996-21.116-2.988
			c-5.578-1.993-10.027-4.715-13.348-8.168c-3.32-3.453-5.644-7.371-6.972-11.753c-1.328-4.383-1.993-8.964-1.993-13.745
			c0-4.516,0.332-9.097,0.996-13.746c0.664-4.648,1.528-9.495,2.591-14.542l34.662-162.953c1.327-6.375,3.187-12.683,5.577-18.925
			c2.39-6.242,5.977-11.953,10.758-17.132c4.78-5.179,10.889-9.363,18.327-12.55C540.344,1.594,549.774,0,561.195,0h124.306
			L675.54,47.013z"/>
	</defs>
	<clipPath id="SVGID_8_">
		<use xlink:href="#SVGID_7_"  overflow="visible"/>
	</clipPath>
	<linearGradient id="SVGID_9_" gradientUnits="userSpaceOnUse" x1="896.7371" y1="140.2176" x2="-756.1994" y2="142.379">
		<stop  offset="0" style="stop-color:#A6A19F"/>
		<stop  offset="1" style="stop-color:#FDFDFD"/>
	</linearGradient>
	<rect x="459.997" y="0" clip-path="url(#SVGID_8_)" fill="url(#SVGID_9_)" width="225.504" height="281.282"/>
</g>
<g>
	<defs>
		<path id="SVGID_10_" d="M761.512,47.81L721.67,233.871h65.739L827.251,47.81H761.512z M912.91,37.451
			c0,4.781-0.531,9.429-1.594,13.944L872.67,231.879c-3.718,16.733-10.492,29.085-20.319,37.052
			c-9.828,7.969-22.311,12.086-37.451,12.351c-11.421,0.266-21.913,0.531-31.475,0.797c-8.234,0.266-16.202,0.399-23.905,0.399
			h-30.679c-7.437,0-15.14-0.133-23.108-0.399c-9.562-0.266-19.921-0.531-31.077-0.797c-11.156-0.266-20.186-3.918-27.092-10.956
			c-6.906-7.039-10.359-16.535-10.359-28.487c0-4.781,0.532-9.297,1.594-13.546l38.647-182.077
			c3.187-14.874,9.495-26.163,18.925-33.865C705.8,4.648,717.42,0.531,731.233,0c11.952-0.265,23.108-0.531,33.467-0.797
			c4.249,0,8.566-0.067,12.948-0.2c4.383-0.133,8.433-0.265,12.152-0.398c3.718-0.133,6.972-0.266,9.762-0.398
			c2.788-0.134,4.847-0.2,6.175-0.2c2.656,0,7.702,0.133,15.139,0.398c7.437,0.266,15.14,0.531,23.108,0.797
			c9.297,0.266,19.523,0.531,30.678,0.797c10.89,0.531,19.987,3.785,27.292,9.762C909.258,15.737,912.91,24.967,912.91,37.451z"/>
	</defs>
	<clipPath id="SVGID_11_">
		<use xlink:href="#SVGID_10_"  overflow="visible"/>
	</clipPath>
	<linearGradient id="SVGID_12_" gradientUnits="userSpaceOnUse" x1="896.7369" y1="140.084" x2="-756.1996" y2="142.2454">
		<stop  offset="0" style="stop-color:#A6A19F"/>
		<stop  offset="1" style="stop-color:#FDFDFD"/>
	</linearGradient>
	<rect x="637.206" y="-1.992" clip-path="url(#SVGID_11_)" fill="url(#SVGID_12_)" width="275.705" height="284.47"/>
</g>
<g>
	<defs>
		<path id="SVGID_13_" d="M1012.826,47.81l-39.841,186.061h65.739l39.842-186.061H1012.826z M1164.225,37.451
			c0,4.781-0.531,9.429-1.594,13.944l-38.647,180.483c-3.718,16.733-10.491,29.085-20.319,37.052
			c-9.828,7.969-22.311,12.086-37.451,12.351c-11.422,0.266-21.913,0.531-31.475,0.797c-8.234,0.266-16.203,0.399-23.905,0.399
			h-30.678c-7.437,0-15.14-0.133-23.108-0.399c-9.562-0.266-19.921-0.531-31.077-0.797c-11.156-0.266-20.186-3.918-27.092-10.956
			c-6.906-7.039-10.359-16.535-10.359-28.487c0-4.781,0.532-9.297,1.594-13.546L928.76,46.216
			c3.187-14.874,9.495-26.163,18.925-33.865C957.115,4.648,968.734,0.531,982.547,0c11.952-0.265,23.108-0.531,33.467-0.797
			c4.25,0,8.566-0.067,12.948-0.2c4.383-0.133,8.433-0.265,12.152-0.398c3.718-0.133,6.972-0.266,9.762-0.398
			c2.788-0.134,4.847-0.2,6.175-0.2c2.656,0,7.702,0.133,15.14,0.398c7.437,0.266,15.14,0.531,23.108,0.797
			c9.297,0.266,19.522,0.531,30.678,0.797c10.889,0.531,19.987,3.785,27.291,9.762C1160.572,15.737,1164.225,24.967,1164.225,37.451
			z"/>
	</defs>
	<clipPath id="SVGID_14_">
		<use xlink:href="#SVGID_13_"  overflow="visible"/>
	</clipPath>
	<linearGradient id="SVGID_15_" gradientUnits="userSpaceOnUse" x1="896.7373" y1="140.4126" x2="-756.1992" y2="142.574">
		<stop  offset="0" style="stop-color:#A6A19F"/>
		<stop  offset="1" style="stop-color:#FDFDFD"/>
	</linearGradient>
	<rect x="888.52" y="-1.992" clip-path="url(#SVGID_14_)" fill="url(#SVGID_15_)" width="275.705" height="284.47"/>
</g>
<g>
	<defs>
		<path id="SVGID_16_" d="M1260.554,45.42l-17.531,82.472h61.357l17.53-82.472H1260.554z M1400,32.67
			c0,5.578-0.797,11.687-2.391,18.327l-14.742,69.324c-3.718,16.733-10.491,29.748-20.319,39.045
			c-9.828,9.297-24.304,13.944-43.427,13.944h-85.66l-22.71,107.971h-84.464L1186.05,0h170.921c15.14,0,26.096,2.656,32.869,7.968
			C1396.613,13.281,1400,21.514,1400,32.67z"/>
	</defs>
	<clipPath id="SVGID_17_">
		<use xlink:href="#SVGID_16_"  overflow="visible"/>
	</clipPath>
	<linearGradient id="SVGID_18_" gradientUnits="userSpaceOnUse" x1="896.7382" y1="141.1203" x2="-756.1982" y2="143.2818">
		<stop  offset="0" style="stop-color:#A6A19F"/>
		<stop  offset="1" style="stop-color:#FDFDFD"/>
	</linearGradient>
	<rect x="1126.288" y="0" clip-path="url(#SVGID_17_)" fill="url(#SVGID_18_)" width="273.712" height="281.282"/>
</g>
</svg>
